{
  "accessors": [
    {
      "bufferView": 2,
      "componentType": 5126,
      "count": 14742,
      "max": [
        3.7037391662597656,
        7.29144287109375,
        3.8554115295410156
      ],
      "min": [
        -3.703807830810547,
        0.0005111368373036385,
        -4.685752868652344
      ],
      "type": "VEC3"
    },
    {
      "bufferView": 2,
      "byteOffset": 176904,
      "componentType": 5126,
      "count": 14742,
      "type": "VEC3"
    },
    {
      "bufferView": 3,
      "componentType": 5126,
      "count": 14742,
      "type": "VEC4"
    },
    {
      "bufferView": 1,
      "componentType": 5126,
      "count": 14742,
      "type": "VEC2"
    },
    {
      "bufferView": 0,
      "componentType": 5125,
      "count": 84864,
      "type": "SCALAR"
    }
  ],
  "asset": {
    "generator": "fab-model-conversion",
    "version": "2.0"
  },
  "bufferViews": [
    {
      "buffer": 0,
      "byteLength": 339456,
      "target": 34963
    },
    {
      "buffer": 0,
      "byteLength": 117936,
      "byteOffset": 339456,
      "byteStride": 8,
      "target": 34962
    },
    {
      "buffer": 0,
      "byteLength": 353808,
      "byteOffset": 457392,
      "byteStride": 12,
      "target": 34962
    },
    {
      "buffer": 0,
      "byteLength": 235872,
      "byteOffset": 811200,
      "byteStride": 16,
      "target": 34962
    }
  ],
  "buffers": [
    {
      "byteLength": 1047072,
      "uri": "scene.bin"
    }
  ],
  "images": [
    {
      "uri": "textures/M_BeanBag_baseColor.png"
    },
    {
      "uri": "textures/M_BeanBag_metallicRoughness.png"
    },
    {
      "uri": "textures/M_BeanBag_normal.png"
    }
  ],
  "materials": [
    {
      "doubleSided": true,
      "name": "M_BeanBag",
      "normalTexture": {
        "index": 2
      },
      "pbrMetallicRoughness": {
        "baseColorTexture": {
          "index": 0
        },
        "metallicRoughnessTexture": {
          "index": 1
        }
      }
    }
  ],
  "meshes": [
    {
      "name": "Bean_Bag_Chair_M_BeanBag_0",
      "primitives": [
        {
          "attributes": {
            "NORMAL": 1,
            "POSITION": 0,
            "TANGENT": 2,
            "TEXCOORD_0": 3
          },
          "indices": 4,
          "material": 0,
          "mode": 4
        }
      ]
    }
  ],
  "nodes": [
    {
      "children": [
        1
      ],
      "matrix": [
        1.0,
        0.0,
        0.0,
        0.0,
        0.0,
        2.220446049250313e-16,
        -1.0,
        0.0,
        0.0,
        1.0,
        2.220446049250313e-16,
        0.0,
        0.0,
        0.0,
        0.0,
        1.0
      ],
      "name": "Sketchfab_model"
    },
    {
      "children": [
        2
      ],
      "matrix": [
        0.009999999776482582,
        0.0,
        0.0,
        0.0,
        0.0,
        0.0,
        0.009999999776482582,
        0.0,
        0.0,
        -0.009999999776482582,
        0.0,
        0.0,
        0.0,
        0.0,
        0.0,
        1.0
      ],
      "name": "7e3ec46c36264efb892a454495686fa5.fbx"
    },
    {
      "children": [
        3
      ],
      "name": "RootNode"
    },
    {
      "children": [
        4
      ],
      "matrix": [
        0.9995059786433506,
        0.0,
        0.031429264327978955,
        0.0,
        0.0,
        1.0,
        0.0,
        0.0,
        -0.031429264327978955,
        0.0,
        0.9995059786433506,
        0.0,
        -0.013048527762293816,
        0.0,
        -0.00020401860820129514,
        1.0
      ],
      "name": "Bean_Bag_Chair"
    },
    {
      "mesh": 0,
      "name": "Bean_Bag_Chair_M_BeanBag_0"
    }
  ],
  "samplers": [
    {
      "magFilter": 9729,
      "minFilter": 9987,
      "wrapS": 10497,
      "wrapT": 10497
    }
  ],
  "scene": 0,
  "scenes": [
    {
      "name": "Sketchfab_Scene",
      "nodes": [
        0
      ]
    }
  ],
  "textures": [
    {
      "sampler": 0,
      "source": 0
    },
    {
      "sampler": 0,
      "source": 1
    },
    {
      "sampler": 0,
      "source": 2
    }
  ]
}
