{
  "accessors": [
    {
      "bufferView": 2,
      "componentType": 5126,
      "count": 146,
      "max": [
        18.653804779052734,
        1.5874890089035034,
        16.19249725341797
      ],
      "min": [
        -18.65384292602539,
        -4.999999873689376e-06,
        -16.19249725341797
      ],
      "type": "VEC3"
    },
    {
      "bufferView": 2,
      "byteOffset": 1752,
      "componentType": 5126,
      "count": 146,
      "max": [
        1.0,
        1.0,
        1.0
      ],
      "min": [
        -1.0,
        -1.0,
        -1.0
      ],
      "type": "VEC3"
    },
    {
      "bufferView": 3,
      "componentType": 5126,
      "count": 146,
      "max": [
        1.0,
        0.0006474261754192412,
        0.0,
        1.0
      ],
      "min": [
        0.0,
        -0.0006468674400821328,
        -1.0,
        -1.0
      ],
      "type": "VEC4"
    },
    {
      "bufferView": 1,
      "componentType": 5126,
      "count": 146,
      "max": [
        1.0,
        0.9895859956741333
      ],
      "min": [
        -0.0,
        0.0
      ],
      "type": "VEC2"
    },
    {
      "bufferView": 1,
      "byteOffset": 1168,
      "componentType": 5126,
      "count": 146,
      "max": [
        0.6298829913139343,
        0.9980319738388062
      ],
      "min": [
        0.0019680000841617584,
        0.005371000152081251
      ],
      "type": "VEC2"
    },
    {
      "bufferView": 0,
      "componentType": 5125,
      "count": 348,
      "type": "SCALAR"
    },
    {
      "bufferView": 2,
      "byteOffset": 3504,
      "componentType": 5126,
      "count": 146,
      "max": [
        18.65380859375,
        1.5874890089035034,
        16.19249725341797
      ],
      "min": [
        -18.65384292602539,
        -4.999999873689376e-06,
        -16.19249725341797
      ],
      "type": "VEC3"
    },
    {
      "bufferView": 2,
      "byteOffset": 5256,
      "componentType": 5126,
      "count": 146,
      "max": [
        1.0,
        1.0,
        1.0
      ],
      "min": [
        -1.0,
        -1.0,
        -1.0
      ],
      "type": "VEC3"
    },
    {
      "bufferView": 3,
      "byteOffset": 2336,
      "componentType": 5126,
      "count": 146,
      "max": [
        1.0,
        0.0006474261754192412,
        0.0,
        1.0
      ],
      "min": [
        0.0,
        -0.0006468674400821328,
        -1.0,
        -1.0
      ],
      "type": "VEC4"
    },
    {
      "bufferView": 1,
      "byteOffset": 2336,
      "componentType": 5126,
      "count": 146,
      "max": [
        1.0,
        0.9895859956741333
      ],
      "min": [
        -0.0,
        0.0
      ],
      "type": "VEC2"
    },
    {
      "bufferView": 1,
      "byteOffset": 3504,
      "componentType": 5126,
      "count": 146,
      "max": [
        0.6298829913139343,
        0.9980319738388062
      ],
      "min": [
        0.0019680000841617584,
        0.005371000152081251
      ],
      "type": "VEC2"
    },
    {
      "bufferView": 0,
      "byteOffset": 1392,
      "componentType": 5125,
      "count": 348,
      "type": "SCALAR"
    },
    {
      "bufferView": 2,
      "byteOffset": 7008,
      "componentType": 5126,
      "count": 438,
      "max": [
        70.16749572753906,
        19.28875732421875,
        47.942501068115234
      ],
      "min": [
        -70.16749572753906,
        -19.28875732421875,
        0.5130810141563416
      ],
      "type": "VEC3"
    },
    {
      "bufferView": 2,
      "byteOffset": 12264,
      "componentType": 5126,
      "count": 438,
      "max": [
        1.0,
        1.0,
        1.0
      ],
      "min": [
        -1.0,
        -1.0,
        -1.0
      ],
      "type": "VEC3"
    },
    {
      "bufferView": 3,
      "byteOffset": 4672,
      "componentType": 5126,
      "count": 438,
      "max": [
        1.0,
        1.0,
        1.0,
        1.0
      ],
      "min": [
        -0.695158064365387,
        -1.0,
        -1.0,
        -1.0
      ],
      "type": "VEC4"
    },
    {
      "bufferView": 1,
      "byteOffset": 4672,
      "componentType": 5126,
      "count": 438,
      "max": [
        0.9921879768371582,
        0.9940149784088135
      ],
      "min": [
        0.0,
        0.0
      ],
      "type": "VEC2"
    },
    {
      "bufferView": 1,
      "byteOffset": 8176,
      "componentType": 5126,
      "count": 438,
      "max": [
        0.9965819716453552,
        0.9995110034942627
      ],
      "min": [
        0.0004889999981969595,
        0.006347999908030033
      ],
      "type": "VEC2"
    },
    {
      "bufferView": 0,
      "byteOffset": 2784,
      "componentType": 5125,
      "count": 1212,
      "type": "SCALAR"
    }
  ],
  "asset": {
    "extras": {
      "author": "Graham Rust (https://sketchfab.com/GRXR.ca)",
      "license": "SKETCHFAB Standard (https://sketchfab.com/licenses)",
      "source": "https://sketchfab.com/3d-models/tv-stand-0e5503dbe6e44e2a85d17512f18ff69d",
      "title": "TV Stand"
    },
    "generator": "Sketchfab-16.12.0",
    "version": "2.0"
  },
  "bufferViews": [
    {
      "buffer": 0,
      "byteLength": 7632,
      "name": "floatBufferViews",
      "target": 34963
    },
    {
      "buffer": 0,
      "byteLength": 11680,
      "byteOffset": 7632,
      "byteStride": 8,
      "name": "floatBufferViews",
      "target": 34962
    },
    {
      "buffer": 0,
      "byteLength": 17520,
      "byteOffset": 19312,
      "byteStride": 12,
      "name": "floatBufferViews",
      "target": 34962
    },
    {
      "buffer": 0,
      "byteLength": 11680,
      "byteOffset": 36832,
      "byteStride": 16,
      "name": "floatBufferViews",
      "target": 34962
    }
  ],
  "buffers": [
    {
      "byteLength": 48512,
      "uri": "scene.bin"
    }
  ],
  "images": [
    {
      "uri": "textures/TvStand_tvstandtex_Mat_baseColor.jpeg"
    },
    {
      "uri": "textures/TvStand_tvstandtex_Mat_metallicRoughness.png"
    },
    {
      "uri": "textures/TvStand_tvstandtex_Mat_normal.png"
    },
    {
      "uri": "textures/TvStand_tvstanddoors_Mat_baseColor.jpeg"
    },
    {
      "uri": "textures/TvStand_tvstanddoors_Mat_metallicRoughness.png"
    },
    {
      "uri": "textures/TvStand_tvstanddoors_Mat_normal.png"
    }
  ],
  "materials": [
    {
      "doubleSided": true,
      "name": "TvStand_tvstandtex_Mat",
      "normalTexture": {
        "index": 2
      },
      "pbrMetallicRoughness": {
        "baseColorTexture": {
          "index": 0
        },
        "metallicRoughnessTexture": {
          "index": 1
        }
      }
    },
    {
      "doubleSided": true,
      "name": "TvStand_tvstanddoors_Mat",
      "normalTexture": {
        "index": 5
      },
      "pbrMetallicRoughness": {
        "baseColorTexture": {
          "index": 3
        },
        "metallicRoughnessTexture": {
          "index": 4
        }
      }
    }
  ],
  "meshes": [
    {
      "name": "defaultMaterial",
      "primitives": [
        {
          "attributes": {
            "NORMAL": 1,
            "POSITION": 0,
            "TANGENT": 2,
            "TEXCOORD_0": 3,
            "TEXCOORD_1": 4
          },
          "indices": 5,
          "material": 1,
          "mode": 4
        }
      ]
    },
    {
      "name": "defaultMaterial",
      "primitives": [
        {
          "attributes": {
            "NORMAL": 7,
            "POSITION": 6,
            "TANGENT": 8,
            "TEXCOORD_0": 9,
            "TEXCOORD_1": 10
          },
          "indices": 11,
          "material": 1,
          "mode": 4
        }
      ]
    },
    {
      "name": "defaultMaterial",
      "primitives": [
        {
          "attributes": {
            "NORMAL": 13,
            "POSITION": 12,
            "TANGENT": 14,
            "TEXCOORD_0": 15,
            "TEXCOORD_1": 16
          },
          "indices": 17,
          "material": 0,
          "mode": 4
        }
      ]
    }
  ],
  "nodes": [
    {
      "children": [
        1
      ],
      "matrix": [
        -1.0,
        -6.290011496532519e-32,
        2.832769343193999e-16,
        0.0,
        2.832769343193999e-16,
        -2.220446049250313e-16,
        1.0,
        0.0,
        0.0,
        1.0,
        2.220446049250313e-16,
        0.0,
        0.0,
        0.0,
        0.0,
        1.0
      ],
      "name": "Sketchfab_model"
    },
    {
      "children": [
        2,
        4,
        6
      ],
      "matrix": [
        1.0,
        0.0,
        0.0,
        0.0,
        0.0,
        -4.371139006309477e-08,
        0.999999999999999,
        0.0,
        0.0,
        -0.999999999999999,
        -4.371139006309477e-08,
        0.0,
        0.0,
        0.0,
        0.0,
        1.0
      ],
      "name": "Collada visual scene group"
    },
    {
      "children": [
        3
      ],
      "matrix": [
        1.0,
        0.0,
        0.0,
        0.0,
        0.0,
        0.0,
        -1.0,
        0.0,
        0.0,
        1.0,
        0.0,
        0.0,
        -48.348038,
        23.360641,
        -14.116109,
        1.0
      ],
      "name": "TvStandDoor2"
    },
    {
      "mesh": 0,
      "name": "defaultMaterial"
    },
    {
      "children": [
        5
      ],
      "matrix": [
        1.0,
        0.0,
        0.0,
        0.0,
        0.0,
        0.0,
        -1.0,
        0.0,
        0.0,
        1.0,
        0.0,
        0.0,
        48.301998,
        23.360641,
        -14.116109,
        1.0
      ],
      "name": "TvStandDoor1"
    },
    {
      "mesh": 1,
      "name": "defaultMaterial"
    },
    {
      "children": [
        7
      ],
      "matrix": [
        1.0,
        0.0,
        0.0,
        0.0,
        0.0,
        0.0,
        -1.0,
        0.0,
        0.0,
        1.0,
        0.0,
        0.0,
        0.0,
        0.0,
        0.0,
        1.0
      ],
      "name": "TvStand"
    },
    {
      "mesh": 2,
      "name": "defaultMaterial"
    }
  ],
  "samplers": [
    {
      "magFilter": 9729,
      "minFilter": 9987,
      "wrapS": 10497,
      "wrapT": 10497
    }
  ],
  "scene": 0,
  "scenes": [
    {
      "name": "Sketchfab_Scene",
      "nodes": [
        0
      ]
    }
  ],
  "textures": [
    {
      "sampler": 0,
      "source": 0
    },
    {
      "sampler": 0,
      "source": 1
    },
    {
      "sampler": 0,
      "source": 2
    },
    {
      "sampler": 0,
      "source": 3
    },
    {
      "sampler": 0,
      "source": 4
    },
    {
      "sampler": 0,
      "source": 5
    }
  ]
}
