{
	"asset":{
		"generator":"Khronos glTF Blender I/O v4.4.55",
		"version":"2.0"
	},
	"scene":0,
	"scenes":[
		{
			"name":"Scene",
			"nodes":[
				14,
				15
			]
		}
	],
	"nodes":[
		{
			"name":"Base",
			"rotation":[
				0,
				-0.7071066498756409,
				0,
				0.70710688829422
			],
			"scale":[
				0.5485730171203613,
				0.5485730767250061,
				0.5485730767250061
			],
			"translation":[
				0,
				0,
				-59.63723373413086
			]
		},
		{
			"name":"chair",
			"rotation":[
				0,
				-0.9430853128433228,
				0,
				0.33255088329315186
			],
			"scale":[
				0.014999999664723873,
				0.014999998733401299,
				0.015000000596046448
			],
			"translation":[
				186.4727325439453,
				0,
				166.3872528076172
			]
		},
		{
			"name":"Cube.008",
			"rotation":[
				0,
				0.7071066498756409,
				0,
				0.70710688829422
			],
			"scale":[
				-0.36702463030815125,
				-0.023215418681502342,
				-0.36702466011047363
			],
			"translation":[
				-296.1953125,
				5.960464022791712e-06,
				538.8544921875
			]
		},
		{
			"name":"Cube.021",
			"rotation":[
				0,
				0.7071066498756409,
				0,
				0.70710688829422
			],
			"scale":[
				-0.36702463030815125,
				-0.023215418681502342,
				-0.36702466011047363
			],
			"translation":[
				-115.70185089111328,
				-42.09689712524414,
				-145.66033935546875
			]
		},
		{
			"name":"Cube.024",
			"rotation":[
				0,
				-0.7071066498756409,
				0,
				0.70710688829422
			],
			"scale":[
				-0.36702463030815125,
				-0.023215418681502342,
				-0.36702466011047363
			],
			"translation":[
				175.3225860595703,
				-42.09689712524414,
				140.37716674804688
			]
		},
		{
			"name":"Cube.025",
			"rotation":[
				0,
				-0.7071066498756409,
				0,
				0.70710688829422
			],
			"scale":[
				-0.36702463030815125,
				-0.023215418681502342,
				-0.36702466011047363
			],
			"translation":[
				36.136962890625,
				-42.09689712524414,
				140.37716674804688
			]
		},
		{
			"name":"FileStroge",
			"rotation":[
				-0.5000000596046448,
				0.4999999403953552,
				0.5,
				0.5
			],
			"scale":[
				0.0021786929573863745,
				0.001778732636012137,
				0.001778732636012137
			],
			"translation":[
				30.911296844482422,
				97.91271209716797,
				-250.814208984375
			]
		},
		{
			"name":"meet_Desk.001",
			"rotation":[
				0,
				1,
				0,
				7.549790126404332e-08
			],
			"scale":[
				0.09240865707397461,
				0.09240864962339401,
				0.09240864962339401
			],
			"translation":[
				-39.784061431884766,
				-42.09690475463867,
				-4.464473247528076
			]
		},
		{
			"name":"pc_case2",
			"rotation":[
				0,
				0.7071066498756409,
				0,
				0.7071069478988647
			],
			"scale":[
				1.2298765182495117,
				1.1982722282409668,
				0.9944913983345032
			],
			"translation":[
				-60.957801818847656,
				0,
				-120.9684066772461
			]
		},
		{
			"name":"screen",
			"rotation":[
				-0.39104944467544556,
				-0.5891351699829102,
				-0.5891353487968445,
				0.39104944467544556
			],
			"scale":[
				0.026553327217698097,
				0.026553327217698097,
				0.026553325355052948
			],
			"translation":[
				-31.176969528198242,
				97.91233825683594,
				-98.33580780029297
			]
		},
		{
			"name":"screen.001",
			"rotation":[
				-0.17328587174415588,
				-0.6855451464653015,
				-0.685545027256012,
				0.1732858568429947
			],
			"scale":[
				0.026553325355052948,
				0.0265533234924078,
				0.026553325355052948
			],
			"translation":[
				-87.0254898071289,
				97.91233825683594,
				-35.41644287109375
			]
		},
		{
			"name":"screen.002",
			"rotation":[
				-0.6553798317909241,
				-0.265475869178772,
				-0.26547589898109436,
				0.6553796529769897
			],
			"scale":[
				0.026553325355052948,
				0.026553325355052948,
				0.026553325355052948
			],
			"translation":[
				-48.61696243286133,
				97.91233825683594,
				48.43584442138672
			]
		},
		{
			"children":[
				0,
				1,
				2,
				3,
				4,
				5,
				6,
				7,
				8,
				9,
				10,
				11
			],
			"name":"RootNode"
		},
		{
			"children":[
				12
			],
			"name":"9008ebe62b394285a7708e1be0a5f73b.fbx",
			"rotation":[
				0.70710688829422,
				0,
				0,
				0.7071066498756409
			],
			"scale":[
				0.009999999776482582,
				0.010000000707805157,
				0.010000000707805157
			]
		},
		{
			"children":[
				13
			],
			"name":"Sketchfab_model",
			"rotation":[
				-0.70710688829422,
				0,
				0,
				0.7071066498756409
			]
		},
		{
			"mesh":0,
			"name":"model",
			"rotation":[
				0.7071068286895752,
				0,
				0,
				0.7071068286895752
			]
		}
	],
	"meshes":[
		{
			"name":"model",
			"primitives":[
				{
					"attributes":{
						"POSITION":0,
						"NORMAL":1,
						"TEXCOORD_0":2
					},
					"indices":3
				}
			]
		}
	],
	"accessors":[
		{
			"bufferView":0,
			"componentType":5126,
			"count":19529,
			"max":[
				0.9500740170478821,
				0.7263659834861755,
				0
			],
			"min":[
				-0.9500100016593933,
				-0.725180983543396,
				-1.6231629848480225
			],
			"type":"VEC3"
		},
		{
			"bufferView":1,
			"componentType":5126,
			"count":19529,
			"type":"VEC3"
		},
		{
			"bufferView":2,
			"componentType":5126,
			"count":19529,
			"type":"VEC2"
		},
		{
			"bufferView":3,
			"componentType":5123,
			"count":103920,
			"type":"SCALAR"
		}
	],
	"bufferViews":[
		{
			"buffer":0,
			"byteLength":234348,
			"byteOffset":0,
			"target":34962
		},
		{
			"buffer":0,
			"byteLength":234348,
			"byteOffset":234348,
			"target":34962
		},
		{
			"buffer":0,
			"byteLength":156232,
			"byteOffset":468696,
			"target":34962
		},
		{
			"buffer":0,
			"byteLength":207840,
			"byteOffset":624928,
			"target":34963
		}
	],
	"buffers":[
		{
			"byteLength":832768,
			"uri":"moi.bin"
		}
	]
}
