{
	"asset":{
		"generator":"Khronos glTF Blender I/O v4.4.55",
		"version":"2.0"
	},
	"scene":0,
	"scenes":[
		{
			"name":"Scene",
			"nodes":[
				37
			]
		}
	],
	"nodes":[
		{
			"name":"Base",
			"rotation":[
				0,
				-0.7071066498756409,
				0,
				0.70710688829422
			],
			"scale":[
				0.5485730171203613,
				0.5485730767250061,
				0.5485730767250061
			],
			"translation":[
				0,
				0,
				-59.63723373413086
			]
		},
		{
			"name":"chair",
			"rotation":[
				0,
				-0.9430853128433228,
				0,
				0.33255088329315186
			],
			"scale":[
				0.014999999664723873,
				0.014999998733401299,
				0.015000000596046448
			],
			"translation":[
				186.4727325439453,
				0,
				166.3872528076172
			]
		},
		{
			"name":"Cube.007",
			"rotation":[
				0,
				-0.3826833963394165,
				0,
				0.9238795638084412
			],
			"translation":[
				105.35950469970703,
				97.91603088378906,
				90.64712524414062
			]
		},
		{
			"name":"Cube.008",
			"rotation":[
				0,
				0.7071066498756409,
				0,
				0.70710688829422
			],
			"scale":[
				-0.36702463030815125,
				-0.023215418681502342,
				-0.36702466011047363
			],
			"translation":[
				-296.1953125,
				5.960464022791712e-06,
				538.8544921875
			]
		},
		{
			"mesh":0,
			"name":"Cube.017_D_palettes_0.001",
			"translation":[
				2.9970871764817275e-05,
				-7.62939453125e-06,
				0
			]
		},
		{
			"children":[
				4
			],
			"name":"Cube.019",
			"rotation":[
				0,
				-1,
				0,
				7.549789415861596e-08
			],
			"translation":[
				-321.98193359375,
				69.5690689086914,
				-3.620671033859253
			]
		},
		{
			"mesh":1,
			"name":"Cube.008_D_palettes_0.001",
			"translation":[
				-1.1738418834283948e-05,
				-0.0001220703125,
				1.945599797181785e-05
			]
		},
		{
			"children":[
				6
			],
			"name":"Cube.020",
			"rotation":[
				0,
				0.7071066498756409,
				0,
				0.70710688829422
			],
			"scale":[
				-0.36702463030815125,
				-0.023215418681502342,
				-0.36702466011047363
			],
			"translation":[
				-254.88742065429688,
				-42.09689712524414,
				-145.66033935546875
			]
		},
		{
			"mesh":2,
			"name":"Cube.009_D_palettes_0.001",
			"translation":[
				2.901091647800058e-06,
				-0.0001220703125,
				-1.1061580153182149e-05
			]
		},
		{
			"children":[
				8
			],
			"name":"Cube.021",
			"rotation":[
				0,
				0.7071066498756409,
				0,
				0.70710688829422
			],
			"scale":[
				-0.36702463030815125,
				-0.023215418681502342,
				-0.36702466011047363
			],
			"translation":[
				-115.70185089111328,
				-42.09689712524414,
				-145.66033935546875
			]
		},
		{
			"mesh":3,
			"name":"Cube.010_D_palettes_0.001",
			"translation":[
				-1.3799574844597373e-05,
				-0.0001220703125,
				-3.432185621932149e-06
			]
		},
		{
			"children":[
				10
			],
			"name":"Cube.022",
			"rotation":[
				0,
				0.7071066498756409,
				0,
				0.70710688829422
			],
			"scale":[
				-0.36702463030815125,
				-0.023215418681502342,
				-0.36702466011047363
			],
			"translation":[
				24.972318649291992,
				-42.09689712524414,
				-145.66033935546875
			]
		},
		{
			"mesh":4,
			"name":"Cube.012_D_palettes_0.001",
			"translation":[
				2.5187873688992113e-05,
				-0.0001220703125,
				-1.1061580153182149e-05
			]
		},
		{
			"children":[
				12
			],
			"name":"Cube.023",
			"rotation":[
				0,
				0.7071066498756409,
				0,
				0.70710688829422
			],
			"scale":[
				-0.36702463030815125,
				-0.023215418681502342,
				-0.36702466011047363
			],
			"translation":[
				175.32272338867188,
				-42.09689712524414,
				-145.66033935546875
			]
		},
		{
			"mesh":5,
			"name":"Cube.013_D_palettes_0.001",
			"translation":[
				2.5187946448568255e-05,
				-0.0001220703125,
				-4.7054119931999594e-05
			]
		},
		{
			"children":[
				14
			],
			"name":"Cube.024",
			"rotation":[
				0,
				-0.7071066498756409,
				0,
				0.70710688829422
			],
			"scale":[
				-0.36702463030815125,
				-0.023215418681502342,
				-0.36702466011047363
			],
			"translation":[
				175.3225860595703,
				-42.09689712524414,
				140.37716674804688
			]
		},
		{
			"mesh":6,
			"name":"Cube.014_D_palettes_0.001",
			"translation":[
				4.1066057747229934e-05,
				-0.0001220703125,
				6.351641786750406e-06
			]
		},
		{
			"children":[
				16
			],
			"name":"Cube.025",
			"rotation":[
				0,
				-0.7071066498756409,
				0,
				0.70710688829422
			],
			"scale":[
				-0.36702463030815125,
				-0.023215418681502342,
				-0.36702466011047363
			],
			"translation":[
				36.136962890625,
				-42.09689712524414,
				140.37716674804688
			]
		},
		{
			"mesh":7,
			"name":"Cube.015_D_palettes_0.001",
			"translation":[
				-3.3785989216994494e-05,
				-0.0001220703125,
				-1.6536614566575736e-05
			]
		},
		{
			"children":[
				18
			],
			"name":"Cube.026",
			"rotation":[
				0,
				-0.7071066498756409,
				0,
				0.70710688829422
			],
			"scale":[
				-0.36702463030815125,
				-0.023215418681502342,
				-0.36702466011047363
			],
			"translation":[
				-104.53724670410156,
				-42.09689712524414,
				140.37730407714844
			]
		},
		{
			"mesh":8,
			"name":"Cube.016_D_palettes_0.001",
			"translation":[
				-1.1738418834283948e-05,
				-0.0001220703125,
				-1.6536614566575736e-05
			]
		},
		{
			"children":[
				20
			],
			"name":"Cube.027",
			"rotation":[
				0,
				-0.7071066498756409,
				0,
				0.70710688829422
			],
			"scale":[
				-0.36702463030815125,
				-0.023215418681502342,
				-0.36702466011047363
			],
			"translation":[
				-254.88742065429688,
				-42.09689712524414,
				140.37730407714844
			]
		},
		{
			"mesh":9,
			"name":"Cube.011_D_palettes_0.001",
			"translation":[
				0.00012061691813869402,
				0.0001220703125,
				0
			]
		},
		{
			"children":[
				22
			],
			"name":"Cube.028",
			"rotation":[
				0,
				1,
				0,
				4.371138828673793e-08
			],
			"scale":[
				-0.36702466011047363,
				-0.023215418681502342,
				-0.36702463030815125
			],
			"translation":[
				-393.77227783203125,
				-42.09689712524414,
				-6.1017584800720215
			]
		},
		{
			"mesh":10,
			"name":"Cube.007_D_palettes_0.001",
			"translation":[
				2.9038477805443108e-05,
				-3.7693303056585137e-06,
				0
			]
		},
		{
			"children":[
				24
			],
			"name":"Cube.029",
			"rotation":[
				-0.0558478906750679,
				0.9984393119812012,
				0,
				7.582672623129838e-08
			],
			"scale":[
				1.5741690397262573,
				1.5741689205169678,
				1.5741691589355469
			],
			"translation":[
				234.78274536132812,
				85.04084014892578,
				-4.464601039886475
			]
		},
		{
			"name":"FileStroge",
			"rotation":[
				-0.5000000596046448,
				0.4999999403953552,
				0.5,
				0.5
			],
			"scale":[
				0.0021786929573863745,
				0.001778732636012137,
				0.001778732636012137
			],
			"translation":[
				30.911296844482422,
				97.91271209716797,
				-250.814208984375
			]
		},
		{
			"mesh":11,
			"name":"meet_Desk_D_palettes_0.001",
			"translation":[
				7.294951956282603e-06,
				-3.0517578125e-05,
				0
			]
		},
		{
			"children":[
				27
			],
			"name":"meet_Desk.001",
			"rotation":[
				0,
				1,
				0,
				7.549790126404332e-08
			],
			"scale":[
				0.09240865707397461,
				0.09240864962339401,
				0.09240864962339401
			],
			"translation":[
				-39.784061431884766,
				-42.09690475463867,
				-4.464473247528076
			]
		},
		{
			"name":"pc_case2",
			"rotation":[
				0,
				0.7071066498756409,
				0,
				0.7071069478988647
			],
			"scale":[
				1.2298765182495117,
				1.1982722282409668,
				0.9944913983345032
			],
			"translation":[
				-60.957801818847656,
				0,
				-120.9684066772461
			]
		},
		{
			"name":"screen",
			"rotation":[
				-0.39104944467544556,
				-0.5891351699829102,
				-0.5891353487968445,
				0.39104944467544556
			],
			"scale":[
				0.026553327217698097,
				0.026553327217698097,
				0.026553325355052948
			],
			"translation":[
				-31.176969528198242,
				97.91233825683594,
				-98.33580780029297
			]
		},
		{
			"name":"screen.001",
			"rotation":[
				-0.17328587174415588,
				-0.6855451464653015,
				-0.685545027256012,
				0.1732858568429947
			],
			"scale":[
				0.026553325355052948,
				0.0265533234924078,
				0.026553325355052948
			],
			"translation":[
				-87.0254898071289,
				97.91233825683594,
				-35.41644287109375
			]
		},
		{
			"name":"screen.002",
			"rotation":[
				-0.6553798317909241,
				-0.265475869178772,
				-0.26547589898109436,
				0.6553796529769897
			],
			"scale":[
				0.026553325355052948,
				0.026553325355052948,
				0.026553325355052948
			],
			"translation":[
				-48.61696243286133,
				97.91233825683594,
				48.43584442138672
			]
		},
		{
			"mesh":12,
			"name":"whiteboard_D_palettes_0.001"
		},
		{
			"children":[
				33
			],
			"name":"whiteboard.001",
			"rotation":[
				0,
				1,
				0,
				7.549789415861596e-08
			],
			"translation":[
				452.83917236328125,
				110.0616455078125,
				-4.464360237121582
			]
		},
		{
			"children":[
				0,
				1,
				2,
				3,
				5,
				7,
				9,
				11,
				13,
				15,
				17,
				19,
				21,
				23,
				25,
				26,
				28,
				29,
				30,
				31,
				32,
				34
			],
			"name":"RootNode"
		},
		{
			"children":[
				35
			],
			"name":"9008ebe62b394285a7708e1be0a5f73b.fbx",
			"rotation":[
				0.70710688829422,
				0,
				0,
				0.7071066498756409
			],
			"scale":[
				0.009999999776482582,
				0.010000000707805157,
				0.010000000707805157
			]
		},
		{
			"children":[
				36
			],
			"name":"Sketchfab_model",
			"rotation":[
				-0.70710688829422,
				0,
				0,
				0.7071066498756409
			]
		}
	],
	"materials":[
		{
			"doubleSided":true,
			"name":"D_palettes",
			"pbrMetallicRoughness":{
				"baseColorTexture":{
					"index":0
				},
				"roughnessFactor":0.8040408492088318
			}
		}
	],
	"meshes":[
		{
			"name":"Cube.017_D_palettes_0.001",
			"primitives":[
				{
					"attributes":{
						"POSITION":0,
						"NORMAL":1,
						"TEXCOORD_0":2
					},
					"indices":3,
					"material":0
				}
			]
		},
		{
			"name":"Cube.008_D_palettes_0.001",
			"primitives":[
				{
					"attributes":{
						"POSITION":4,
						"NORMAL":5,
						"TEXCOORD_0":6
					},
					"indices":7,
					"material":0
				}
			]
		},
		{
			"name":"Cube.009_D_palettes_0.001",
			"primitives":[
				{
					"attributes":{
						"POSITION":8,
						"NORMAL":9,
						"TEXCOORD_0":10
					},
					"indices":7,
					"material":0
				}
			]
		},
		{
			"name":"Cube.010_D_palettes_0.001",
			"primitives":[
				{
					"attributes":{
						"POSITION":11,
						"NORMAL":12,
						"TEXCOORD_0":13
					},
					"indices":7,
					"material":0
				}
			]
		},
		{
			"name":"Cube.012_D_palettes_0.001",
			"primitives":[
				{
					"attributes":{
						"POSITION":14,
						"NORMAL":15,
						"TEXCOORD_0":16
					},
					"indices":7,
					"material":0
				}
			]
		},
		{
			"name":"Cube.013_D_palettes_0.001",
			"primitives":[
				{
					"attributes":{
						"POSITION":17,
						"NORMAL":18,
						"TEXCOORD_0":19
					},
					"indices":7,
					"material":0
				}
			]
		},
		{
			"name":"Cube.014_D_palettes_0.001",
			"primitives":[
				{
					"attributes":{
						"POSITION":20,
						"NORMAL":21,
						"TEXCOORD_0":22
					},
					"indices":7,
					"material":0
				}
			]
		},
		{
			"name":"Cube.015_D_palettes_0.001",
			"primitives":[
				{
					"attributes":{
						"POSITION":23,
						"NORMAL":24,
						"TEXCOORD_0":25
					},
					"indices":7,
					"material":0
				}
			]
		},
		{
			"name":"Cube.016_D_palettes_0.001",
			"primitives":[
				{
					"attributes":{
						"POSITION":26,
						"NORMAL":27,
						"TEXCOORD_0":28
					},
					"indices":7,
					"material":0
				}
			]
		},
		{
			"name":"Cube.011_D_palettes_0.001",
			"primitives":[
				{
					"attributes":{
						"POSITION":29,
						"NORMAL":30,
						"TEXCOORD_0":31
					},
					"indices":7,
					"material":0
				}
			]
		},
		{
			"name":"Cube.007_D_palettes_0.001",
			"primitives":[
				{
					"attributes":{
						"POSITION":32,
						"NORMAL":33,
						"TEXCOORD_0":34
					},
					"indices":35,
					"material":0
				}
			]
		},
		{
			"name":"meet_Desk_D_palettes_0.001",
			"primitives":[
				{
					"attributes":{
						"POSITION":36,
						"NORMAL":37,
						"TEXCOORD_0":38
					},
					"indices":39,
					"material":0
				}
			]
		},
		{
			"name":"whiteboard_D_palettes_0.001",
			"primitives":[
				{
					"attributes":{
						"POSITION":40,
						"NORMAL":41,
						"TEXCOORD_0":42
					},
					"indices":43,
					"material":0
				}
			]
		}
	],
	"textures":[
		{
			"sampler":0,
			"source":0
		}
	],
	"images":[
		{
			"mimeType":"image/png",
			"name":"D_palettes_baseColor",
			"uri":"D_palettes_baseColor.png"
		}
	],
	"accessors":[
		{
			"bufferView":0,
			"componentType":5126,
			"count":146,
			"max":[
				26.916030883789062,
				41.41450119018555,
				35.6070442199707
			],
			"min":[
				-40.433631896972656,
				-1.6471333503723145,
				-35.6070442199707
			],
			"type":"VEC3"
		},
		{
			"bufferView":1,
			"componentType":5126,
			"count":146,
			"type":"VEC3"
		},
		{
			"bufferView":2,
			"componentType":5126,
			"count":146,
			"type":"VEC2"
		},
		{
			"bufferView":3,
			"componentType":5123,
			"count":270,
			"type":"SCALAR"
		},
		{
			"bufferView":4,
			"componentType":5126,
			"count":3521,
			"max":[
				145.72064208984375,
				-0.0011444091796875,
				142.13516235351562
			],
			"min":[
				-139.31622314453125,
				-6321.7919921875,
				-142.9017333984375
			],
			"type":"VEC3"
		},
		{
			"bufferView":5,
			"componentType":5126,
			"count":3521,
			"type":"VEC3"
		},
		{
			"bufferView":6,
			"componentType":5126,
			"count":3521,
			"type":"VEC2"
		},
		{
			"bufferView":7,
			"componentType":5123,
			"count":10740,
			"type":"SCALAR"
		},
		{
			"bufferView":8,
			"componentType":5126,
			"count":3521,
			"max":[
				145.72064208984375,
				-0.0011444091796875,
				142.13516235351562
			],
			"min":[
				-139.31622314453125,
				-6321.7919921875,
				-142.9017333984375
			],
			"type":"VEC3"
		},
		{
			"bufferView":9,
			"componentType":5126,
			"count":3521,
			"type":"VEC3"
		},
		{
			"bufferView":10,
			"componentType":5126,
			"count":3521,
			"type":"VEC2"
		},
		{
			"bufferView":11,
			"componentType":5126,
			"count":3521,
			"max":[
				145.72064208984375,
				-0.0011444091796875,
				142.13516235351562
			],
			"min":[
				-139.31622314453125,
				-6321.7919921875,
				-142.9017333984375
			],
			"type":"VEC3"
		},
		{
			"bufferView":12,
			"componentType":5126,
			"count":3521,
			"type":"VEC3"
		},
		{
			"bufferView":13,
			"componentType":5126,
			"count":3521,
			"type":"VEC2"
		},
		{
			"bufferView":14,
			"componentType":5126,
			"count":3521,
			"max":[
				145.72064208984375,
				-0.0011444091796875,
				142.13516235351562
			],
			"min":[
				-139.31622314453125,
				-6321.7919921875,
				-142.9017333984375
			],
			"type":"VEC3"
		},
		{
			"bufferView":15,
			"componentType":5126,
			"count":3521,
			"type":"VEC3"
		},
		{
			"bufferView":16,
			"componentType":5126,
			"count":3521,
			"type":"VEC2"
		},
		{
			"bufferView":17,
			"componentType":5126,
			"count":3521,
			"max":[
				145.72064208984375,
				-0.0011444091796875,
				142.13516235351562
			],
			"min":[
				-139.31622314453125,
				-6321.7919921875,
				-142.9017333984375
			],
			"type":"VEC3"
		},
		{
			"bufferView":18,
			"componentType":5126,
			"count":3521,
			"type":"VEC3"
		},
		{
			"bufferView":19,
			"componentType":5126,
			"count":3521,
			"type":"VEC2"
		},
		{
			"bufferView":20,
			"componentType":5126,
			"count":3521,
			"max":[
				145.72064208984375,
				-0.0011444091796875,
				142.13516235351562
			],
			"min":[
				-139.31622314453125,
				-6321.7919921875,
				-142.9017333984375
			],
			"type":"VEC3"
		},
		{
			"bufferView":21,
			"componentType":5126,
			"count":3521,
			"type":"VEC3"
		},
		{
			"bufferView":22,
			"componentType":5126,
			"count":3521,
			"type":"VEC2"
		},
		{
			"bufferView":23,
			"componentType":5126,
			"count":3521,
			"max":[
				145.72064208984375,
				-0.0011444091796875,
				142.13516235351562
			],
			"min":[
				-139.31622314453125,
				-6321.7919921875,
				-142.9017333984375
			],
			"type":"VEC3"
		},
		{
			"bufferView":24,
			"componentType":5126,
			"count":3521,
			"type":"VEC3"
		},
		{
			"bufferView":25,
			"componentType":5126,
			"count":3521,
			"type":"VEC2"
		},
		{
			"bufferView":26,
			"componentType":5126,
			"count":3521,
			"max":[
				145.72064208984375,
				-0.0011444091796875,
				142.13516235351562
			],
			"min":[
				-139.31622314453125,
				-6321.7919921875,
				-142.9017333984375
			],
			"type":"VEC3"
		},
		{
			"bufferView":27,
			"componentType":5126,
			"count":3521,
			"type":"VEC3"
		},
		{
			"bufferView":28,
			"componentType":5126,
			"count":3521,
			"type":"VEC2"
		},
		{
			"bufferView":29,
			"componentType":5126,
			"count":3521,
			"max":[
				145.72064208984375,
				-0.0011444091796875,
				142.13516235351562
			],
			"min":[
				-139.31622314453125,
				-6321.7919921875,
				-142.9017333984375
			],
			"type":"VEC3"
		},
		{
			"bufferView":30,
			"componentType":5126,
			"count":3521,
			"type":"VEC3"
		},
		{
			"bufferView":31,
			"componentType":5126,
			"count":3521,
			"type":"VEC2"
		},
		{
			"bufferView":32,
			"componentType":5126,
			"count":527,
			"max":[
				14.623570442199707,
				5.2549662590026855,
				14.623570442199707
			],
			"min":[
				-14.623570442199707,
				-11.917476654052734,
				-14.623570442199707
			],
			"type":"VEC3"
		},
		{
			"bufferView":33,
			"componentType":5126,
			"count":527,
			"type":"VEC3"
		},
		{
			"bufferView":34,
			"componentType":5126,
			"count":527,
			"type":"VEC2"
		},
		{
			"bufferView":35,
			"componentType":5123,
			"count":1638,
			"type":"SCALAR"
		},
		{
			"bufferView":36,
			"componentType":5126,
			"count":310,
			"max":[
				3774.585693359375,
				1190.568603515625,
				1638.3934326171875
			],
			"min":[
				-3774.585693359375,
				0.04992485046386719,
				-1638.3934326171875
			],
			"type":"VEC3"
		},
		{
			"bufferView":37,
			"componentType":5126,
			"count":310,
			"type":"VEC3"
		},
		{
			"bufferView":38,
			"componentType":5126,
			"count":310,
			"type":"VEC2"
		},
		{
			"bufferView":39,
			"componentType":5123,
			"count":816,
			"type":"SCALAR"
		},
		{
			"bufferView":40,
			"componentType":5126,
			"count":984,
			"max":[
				34.7055778503418,
				66.72506713867188,
				100.84166717529297
			],
			"min":[
				-32.91954040527344,
				-152.13046264648438,
				-100.84166717529297
			],
			"type":"VEC3"
		},
		{
			"bufferView":41,
			"componentType":5126,
			"count":984,
			"type":"VEC3"
		},
		{
			"bufferView":42,
			"componentType":5126,
			"count":984,
			"type":"VEC2"
		},
		{
			"bufferView":43,
			"componentType":5123,
			"count":2406,
			"type":"SCALAR"
		}
	],
	"bufferViews":[
		{
			"buffer":0,
			"byteLength":1752,
			"byteOffset":0,
			"target":34962
		},
		{
			"buffer":0,
			"byteLength":1752,
			"byteOffset":1752,
			"target":34962
		},
		{
			"buffer":0,
			"byteLength":1168,
			"byteOffset":3504,
			"target":34962
		},
		{
			"buffer":0,
			"byteLength":540,
			"byteOffset":4672,
			"target":34963
		},
		{
			"buffer":0,
			"byteLength":42252,
			"byteOffset":5212,
			"target":34962
		},
		{
			"buffer":0,
			"byteLength":42252,
			"byteOffset":47464,
			"target":34962
		},
		{
			"buffer":0,
			"byteLength":28168,
			"byteOffset":89716,
			"target":34962
		},
		{
			"buffer":0,
			"byteLength":21480,
			"byteOffset":117884,
			"target":34963
		},
		{
			"buffer":0,
			"byteLength":42252,
			"byteOffset":139364,
			"target":34962
		},
		{
			"buffer":0,
			"byteLength":42252,
			"byteOffset":181616,
			"target":34962
		},
		{
			"buffer":0,
			"byteLength":28168,
			"byteOffset":223868,
			"target":34962
		},
		{
			"buffer":0,
			"byteLength":42252,
			"byteOffset":252036,
			"target":34962
		},
		{
			"buffer":0,
			"byteLength":42252,
			"byteOffset":294288,
			"target":34962
		},
		{
			"buffer":0,
			"byteLength":28168,
			"byteOffset":336540,
			"target":34962
		},
		{
			"buffer":0,
			"byteLength":42252,
			"byteOffset":364708,
			"target":34962
		},
		{
			"buffer":0,
			"byteLength":42252,
			"byteOffset":406960,
			"target":34962
		},
		{
			"buffer":0,
			"byteLength":28168,
			"byteOffset":449212,
			"target":34962
		},
		{
			"buffer":0,
			"byteLength":42252,
			"byteOffset":477380,
			"target":34962
		},
		{
			"buffer":0,
			"byteLength":42252,
			"byteOffset":519632,
			"target":34962
		},
		{
			"buffer":0,
			"byteLength":28168,
			"byteOffset":561884,
			"target":34962
		},
		{
			"buffer":0,
			"byteLength":42252,
			"byteOffset":590052,
			"target":34962
		},
		{
			"buffer":0,
			"byteLength":42252,
			"byteOffset":632304,
			"target":34962
		},
		{
			"buffer":0,
			"byteLength":28168,
			"byteOffset":674556,
			"target":34962
		},
		{
			"buffer":0,
			"byteLength":42252,
			"byteOffset":702724,
			"target":34962
		},
		{
			"buffer":0,
			"byteLength":42252,
			"byteOffset":744976,
			"target":34962
		},
		{
			"buffer":0,
			"byteLength":28168,
			"byteOffset":787228,
			"target":34962
		},
		{
			"buffer":0,
			"byteLength":42252,
			"byteOffset":815396,
			"target":34962
		},
		{
			"buffer":0,
			"byteLength":42252,
			"byteOffset":857648,
			"target":34962
		},
		{
			"buffer":0,
			"byteLength":28168,
			"byteOffset":899900,
			"target":34962
		},
		{
			"buffer":0,
			"byteLength":42252,
			"byteOffset":928068,
			"target":34962
		},
		{
			"buffer":0,
			"byteLength":42252,
			"byteOffset":970320,
			"target":34962
		},
		{
			"buffer":0,
			"byteLength":28168,
			"byteOffset":1012572,
			"target":34962
		},
		{
			"buffer":0,
			"byteLength":6324,
			"byteOffset":1040740,
			"target":34962
		},
		{
			"buffer":0,
			"byteLength":6324,
			"byteOffset":1047064,
			"target":34962
		},
		{
			"buffer":0,
			"byteLength":4216,
			"byteOffset":1053388,
			"target":34962
		},
		{
			"buffer":0,
			"byteLength":3276,
			"byteOffset":1057604,
			"target":34963
		},
		{
			"buffer":0,
			"byteLength":3720,
			"byteOffset":1060880,
			"target":34962
		},
		{
			"buffer":0,
			"byteLength":3720,
			"byteOffset":1064600,
			"target":34962
		},
		{
			"buffer":0,
			"byteLength":2480,
			"byteOffset":1068320,
			"target":34962
		},
		{
			"buffer":0,
			"byteLength":1632,
			"byteOffset":1070800,
			"target":34963
		},
		{
			"buffer":0,
			"byteLength":11808,
			"byteOffset":1072432,
			"target":34962
		},
		{
			"buffer":0,
			"byteLength":11808,
			"byteOffset":1084240,
			"target":34962
		},
		{
			"buffer":0,
			"byteLength":7872,
			"byteOffset":1096048,
			"target":34962
		},
		{
			"buffer":0,
			"byteLength":4812,
			"byteOffset":1103920,
			"target":34963
		}
	],
	"samplers":[
		{
			"magFilter":9729,
			"minFilter":9987
		}
	],
	"buffers":[
		{
			"byteLength":1108732,
			"uri":"thomas.bin"
		}
	]
}
